<svg width="32" height="32" viewBox="0 0 32 32" fill="none" xmlns="http://www.w3.org/2000/svg">
<path d="M12.0001 15.6665C11.0801 15.6665 10.3334 16.4132 10.3334 17.3332C10.3334 18.2532 11.0801 18.9998 12.0001 18.9998C12.9201 18.9998 13.6667 18.2532 13.6667 17.3332C13.6667 16.4132 12.9201 15.6665 12.0001 15.6665ZM20.0001 15.6665C19.0801 15.6665 18.3334 16.4132 18.3334 17.3332C18.3334 18.2532 19.0801 18.9998 20.0001 18.9998C20.9201 18.9998 21.6667 18.2532 21.6667 17.3332C21.6667 16.4132 20.9201 15.6665 20.0001 15.6665ZM16.0001 2.6665C8.64008 2.6665 2.66675 8.63984 2.66675 15.9998C2.66675 23.3598 8.64008 29.3332 16.0001 29.3332C23.3601 29.3332 29.3334 23.3598 29.3334 15.9998C29.3334 8.63984 23.3601 2.6665 16.0001 2.6665ZM16.0001 26.6665C10.1201 26.6665 5.33341 21.8798 5.33341 15.9998C5.33341 15.6132 5.36008 15.2265 5.40008 14.8532C8.54675 13.4532 11.0401 10.8798 12.3467 7.69317C14.7601 11.1065 18.7334 13.3332 23.2267 13.3332C24.2667 13.3332 25.2667 13.2132 26.2267 12.9865C26.5067 13.9332 26.6667 14.9465 26.6667 15.9998C26.6667 21.8798 21.8801 26.6665 16.0001 26.6665Z" fill="#DE7575"/>
</svg>
